<?xml version="1.0" encoding="iso-8859-1"?>
<!-- Uploaded to: SVG Repo, www.svgrepo.com, Generator: SVG Repo Mixer Tools -->
<svg height="50" width="50" version="1.1" id="Layer_1" xmlns="http://www.w3.org/2000/svg" xmlns:xlink="http://www.w3.org/1999/xlink" 
	 viewBox="0 0 460 460" xml:space="preserve">
<g id="XMLID_3124_">
	<path id="XMLID_1776_" style="fill:#8E8E8E;" d="M460,65v260c0,5.523-4.477,10-10,10H350v20h10c16.569,0,30,13.431,30,30v10
		c0,5.523-4.477,10-10,10H80c-5.523,0-10-4.477-10-10v-10c0-16.569,13.431-30,30-30h10v-20H10c-5.523,0-10-4.477-10-10V65
		c0-5.523,4.477-10,10-10h440C455.523,55,460,59.477,460,65z"/>
	<path id="XMLID_1778_" style="fill:#646466;" d="M388.286,375c1.106,3.128,1.714,6.493,1.714,10v10c0,5.523-4.477,10-10,10H80
		c-5.523,0-10-4.477-10-10v-10c0-3.507,0.608-6.872,1.714-10H388.286z"/>
	<path id="XMLID_2041_" style="fill:#646466;" d="M350,355H110v-20h240V355z"/>
	<path id="XMLID_2685_" style="fill:#646466;" d="M427.143,92.857v6.428c0,2.761-2.239,5-5,5h-6.428c-2.761,0-5-2.239-5-5v-6.428
		c0-2.761,2.239-5,5-5h6.428C424.904,87.857,427.143,90.096,427.143,92.857z"/>
	<path id="XMLID_2693_" style="fill:#646466;" d="M427.143,257.143v39.286c0,2.761-2.239,5-5,5h-6.428c-2.761,0-5-2.239-5-5v-39.286
		c0-2.761,2.239-5,5-5h6.428C424.904,252.143,427.143,254.381,427.143,257.143z"/>
	<path id="XMLID_2692_" style="fill:#646466;" d="M427.143,125.714v6.428c0,2.761-2.239,5-5,5h-6.428c-2.761,0-5-2.239-5-5v-6.428
		c0-2.761,2.239-5,5-5h6.428C424.904,120.714,427.143,122.953,427.143,125.714z"/>
	<path id="XMLID_1760_" style="fill:#3A3A3A;" d="M372.857,301.429h-335c-2.761,0-5-2.239-5-5V92.857c0-2.761,2.239-5,5-5h335
		c2.761,0,5,2.239,5,5v203.571C377.857,299.19,375.619,301.429,372.857,301.429z"/>
	<path id="XMLID_2684_" style="fill:#5B5D68;" d="M377.857,185v20H206.813c-3.188,0-6.198-1.395-8.261-3.825l-0.726-0.856
		l-30.033-57.699c-0.84-1.615-2.494-2.619-4.315-2.619c-2.149,0-4.018,1.38-4.65,3.435l-33.622,109.272
		C122.024,263.051,112.615,270,101.793,270c-9.54,0-18.277-5.602-22.26-14.27L56.222,205H32.857v-20h29.298
		c2.881,0,5.593,1.119,7.637,3.15l1.283,1.274l26.631,57.955c0.731,1.592,2.335,2.62,4.086,2.62c1.987,0,3.714-1.275,4.298-3.174
		l33.622-109.273c3.23-10.499,12.781-17.553,23.766-17.553c9.307,0,17.758,5.129,22.056,13.385L212.401,185H377.857z"/>
	<path id="XMLID_2679_" style="fill:#9ADB81;" d="M377.857,185v20h-89.31c-8.828,0-17.167-3.861-22.878-10.594l-22.196-26.168
		c-1.746-2.059-4.293-3.238-6.992-3.238c-3.282,0-6.332,1.77-7.96,4.619l-28.962,50.684c-5.18,9.065-14.884,14.697-25.325,14.697
		h-0.937c-7.792,0-15.116-3.034-20.625-8.543l-18.528-18.528c-1.888-1.889-4.4-2.929-7.071-2.929H32.857v-20h94.216
		c8.013,0,15.546,3.12,21.213,8.786l18.528,18.528c1.731,1.731,4.034,2.686,6.483,2.686h0.937c3.282,0,6.332-1.77,7.96-4.619
		l28.962-50.684c5.18-9.065,14.884-14.697,25.325-14.697c8.584,0,16.692,3.755,22.244,10.302l22.196,26.167
		c1.904,2.244,4.683,3.531,7.626,3.531L377.857,185L377.857,185z"/>
</g>
</svg>