<?xml version="1.0" encoding="iso-8859-1"?>
<!-- Uploaded to: SVG Repo, www.svgrepo.com, Generator: SVG Repo Mixer Tools -->
<svg height="50" width="50" version="1.1" id="Layer_1" xmlns="http://www.w3.org/2000/svg" xmlns:xlink="http://www.w3.org/1999/xlink" 
	 viewBox="0 0 512 512" xml:space="preserve">
<circle style="fill:#324A5E;" cx="256" cy="256" r="256"/>
<path style="fill:#2B3B4E;" d="M270.626,511.574c125.042-7.044,226.08-103.82,239.775-226.971l-92.532-92.532l-73.623,41.646
	L228.426,117.898l-79.594,99.887l-29.52,77.315l84.823,84.823l-5.918,59.24L270.626,511.574z"/>
<path style="fill:#E6F3FF;" d="M218.824,114.098c0,0-29.618,8.235-42.91-14.303s-28.606,14.303-28.606,14.303
	s16.325,14.738,14.303,28.606c-2.022,13.869,16.325,23.405,0,42.91s-51.291,23.405-42.91,42.91
	c8.38,19.504,5.491,23.405-14.303,28.606s19.794,50.279,28.606,42.91c8.814-7.368,7.658-21.239,14.303-14.303
	c6.646,6.935-20.516,26.007,42.91,143.034c0,0,12.424,28.174,28.606,0c16.182-28.174,4.189-53.313,14.303-71.518
	c10.114-18.204,105.181-55.48,100.124-71.518s-30.486-52.446-14.303-57.215c16.182-4.768,17.627,11.269,28.607,14.303
	c10.981,3.034,18.927-4.768,0,28.606c0,0,24.56,23.405,28.606,14.303c4.046-9.102,5.923-29.041,14.303-42.91
	c8.38-13.871,18.06-28.174,28.607-28.606c10.547-0.433,1.155-40.743-28.607-28.607c-29.761,12.136-45.223,39.01-57.215,28.607
	c-11.991-10.402-13.581,16.037-28.606,14.303c-15.026-1.734-93.334-10.836-71.518-42.91c0,0-35.687-19.939-28.607-28.606
	c7.08-8.67,15.458,0,14.303-14.303C217.667,128.402,241.218,115.4,218.824,114.098z"/>
<path style="fill:#CFDBE6;" d="M390.466,185.616c-29.763,12.136-45.223,39.01-57.215,28.606
	c-11.991-10.402-13.581,16.038-28.606,14.303c-8.933-1.031-40.231-4.667-59.563-14.184v131.941
	c28.11-19.513,92.35-47.283,88.169-60.542c-5.056-16.037-30.486-52.446-14.303-57.215c16.182-4.768,17.627,11.269,28.606,14.303
	c10.98,3.034,18.927-4.768,0,28.606c0,0,24.56,23.405,28.607,14.303c4.046-9.102,5.923-29.041,14.303-42.91
	c8.38-13.871,18.06-28.174,28.606-28.606C429.62,213.79,420.228,173.48,390.466,185.616z"/>
<path style="fill:#E09112;" d="M233.127,185.616c0,0-35.687-19.939-28.606-28.606c7.08-8.67,15.458,0,14.303-14.303
	c-1.155-14.303,22.394-27.307,0-28.606c0,0-29.618,8.235-42.91-14.303S147.308,114.1,147.308,114.1s16.325,14.738,14.303,28.606
	c-2.022,13.871,16.325,23.405,0,42.91c-5.841,6.978-14.064,11.955-21.837,16.368h90.867
	C228.431,197.335,228.838,191.922,233.127,185.616z"/>
<path style="fill:#66B31B;" d="M190.216,428.775c0,0,12.424,28.174,28.606,0s4.189-53.313,14.303-71.518
	c5.384-9.688,34.832-24.781,60.442-39.198H147.692C150.071,338.547,159.566,372.222,190.216,428.775z"/>
<path style="fill:#599B13;" d="M245.083,318.061v28.225c12.204-8.473,31.213-18.501,48.485-28.225H245.083z"/>
</svg>