<?xml version="1.0" encoding="iso-8859-1"?>
<!-- Uploaded to: SVG Repo, www.svgrepo.com, Generator: SVG Repo Mixer Tools -->
<svg height="50" width="50" version="1.1" id="Layer_1" xmlns="http://www.w3.org/2000/svg" xmlns:xlink="http://www.w3.org/1999/xlink" 
	 viewBox="0 0 460 460" xml:space="preserve">
<g id="XMLID_3108_">
	<path id="XMLID_1489_" style="fill:#E0D5CE;" d="M290,0h-60H80C63.431,0,50,13.431,50,30v400c0,16.569,13.431,30,30,30h150h150
		c16.569,0,30-13.431,30-30V120L290,0z"/>
	<path id="XMLID_1491_" style="fill:#EADDD3;" d="M230,460H80c-16.569,0-30-13.431-30-30V30C50,13.431,63.431,0,80,0h150V460z"/>
	<path id="XMLID_1494_" style="fill:#BAAFAA;" d="M410,120v30l-90-30v-20h70L410,120z"/>
	<path id="XMLID_1499_" style="fill:#B8D0D1;" d="M290,90V0l120,120h-90C303.431,120,290,106.569,290,90z"/>
	<path id="XMLID_1758_" style="fill:#C6BAB3;" d="M355,249.365H105c-2.761,0-5-2.239-5-5v-9.063c0-2.761,2.239-5,5-5h250
		c2.761,0,5,2.239,5,5v9.063C360,247.126,357.761,249.365,355,249.365z"/>
	<path id="XMLID_2613_" style="fill:#C6BAB3;" d="M355,320H105c-2.761,0-5-2.239-5-5v-10c0-2.761,2.239-5,5-5h250
		c2.761,0,5,2.239,5,5v10C360,317.761,357.761,320,355,320z"/>
	<path id="XMLID_2638_" style="fill:#C6BAB3;" d="M295,390H165c-2.761,0-5-2.239-5-5v-10c0-2.761,2.239-5,5-5h130
		c2.761,0,5,2.239,5,5v10C300,387.761,297.761,390,295,390z"/>
	<path id="XMLID_2639_" style="fill:#C6524A;" d="M210,115c0,8.284-6.716,15-15,15h-15v15c0,8.284-6.716,15-15,15s-15-6.716-15-15
		v-15h-15c-8.284,0-15-6.716-15-15s6.716-15,15-15h15V85c0-8.284,6.716-15,15-15s15,6.716,15,15v15h15
		C203.284,100,210,106.716,210,115z"/>
	<path id="XMLID_2641_" style="fill:#D3625F;" d="M150,130.23V130h-15c-8.284,0-15-6.716-15-15s6.716-15,15-15h15V85
		c0-8.284,6.716-15,15-15s15,6.716,15,15v15h0.23L150,130.23z"/>
</g>
</svg>