<?xml version="1.0" encoding="iso-8859-1"?>
<!-- Uploaded to: SVG Repo, www.svgrepo.com, Generator: SVG Repo Mixer Tools -->
<svg height="50" width="50" version="1.1" id="Layer_1" xmlns="http://www.w3.org/2000/svg" xmlns:xlink="http://www.w3.org/1999/xlink" 
	 viewBox="0 0 460 460" xml:space="preserve">
<g id="XMLID_3322_">
	<path id="XMLID_1239_" style="fill:#9B9087;" d="M420,60v370c0,16.568-13.431,30-30,30H230H70c-16.569,0-30-13.432-30-30V60
		c0-16.568,13.431-30,30-30h160h160C406.569,30,420,43.432,420,60z"/>
	<path id="XMLID_3190_" style="fill:#B5AFA5;" d="M40,430V60c0-16.569,13.431-30,30-30h160v430H70C53.431,460,40,446.569,40,430z"/>
	<path id="XMLID_3156_" style="fill:#897E76;" d="M380,400v20c0,5.523-4.477,10-10,10H230H90c-5.523,0-10-4.477-10-10v-20h150H380z"
		/>
	<path id="XMLID_3142_" style="fill:#9B9087;" d="M230,430H90c-5.523,0-10-4.477-10-10v-20h150V430z"/>
	<path id="XMLID_1167_" style="fill:#E0D5CE;" d="M380,75v330c0,8.284-6.716,15-15,15H230H95c-8.284,0-15-6.716-15-15V75
		c0-8.284,6.716-15,15-15h135h135C373.284,60,380,66.716,380,75z"/>
	<path id="XMLID_3059_" style="fill:#EADDD3;" d="M80,405V75c0-8.284,6.716-15,15-15h135v360H95C86.716,420,80,413.284,80,405z"/>
	<path id="XMLID_2911_" style="fill:#C9BBB3;" d="M300,60v5c0,8.284-6.716,15-15,15h-55h-55c-8.284,0-15-6.716-15-15v-5h70H300z"/>
	<path id="XMLID_2902_" style="fill:#D6CBC4;" d="M230,80h-55c-8.284,0-15-6.716-15-15v-5h70V80z"/>
	<path id="XMLID_2833_" style="fill:#919A9B;" d="M290,30v30c0,5.523-4.477,10-10,10H180c-5.523,0-10-4.477-10-10V30h30V10
		c0-5.523,4.477-10,10-10h40c5.523,0,10,4.477,10,10v20H290z"/>
	<path id="XMLID_2851_" style="fill:#AAB4B5;" d="M290,40H170V30h120V40z"/>
	<path id="XMLID_2831_" style="fill:#C9BBB3;" d="M283.846,335v10c0,2.761-2.239,5-5,5h-97.692c-2.761,0-5-2.239-5-5v-10
		c0-2.761,2.239-5,5-5h97.692C281.608,330,283.846,332.239,283.846,335z"/>
	<path id="XMLID_1452_" style="fill:#C9BBB3;" d="M330,275v10c0,2.761-2.239,5-5,5H135c-2.761,0-5-2.239-5-5v-10
		c0-2.761,2.239-5,5-5h190C327.761,270,330,272.239,330,275z"/>
	<path id="XMLID_1447_" style="fill:#C6524A;" d="M275,165c0,8.284-6.716,15-15,15h-15v15c0,8.284-6.716,15-15,15s-15-6.716-15-15
		v-15h-15c-8.284,0-15-6.716-15-15s6.716-15,15-15h15v-15c0-8.284,6.716-15,15-15s15,6.716,15,15v15h15
		C268.284,150,275,156.716,275,165z"/>
	<path id="XMLID_1426_" style="fill:#D3625F;" d="M215,180.23V180h-15c-8.284,0-15-6.716-15-15s6.716-15,15-15h15v-15
		c0-8.284,6.716-15,15-15s15,6.716,15,15v15h0.23L215,180.23z"/>
</g>
</svg>